<svg xmlns="http://www.w3.org/2000/svg" style="display:none">
  <symbol id="icon-portfolio" viewBox="0 0 24 24">
    <path fill="currentColor" d="M12 2a3 3 0 0 1 3 3v1h3.5A2.5 2.5 0 0 1 21 8.5v9A2.5 2.5 0 0 1 18.5 20h-13A2.5 2.5 0 0 1 3 17.5v-9A2.5 2.5 0 0 1 5.5 6H9V5a3 3 0 0 1 3-3zm1 4V5a1 1 0 1 0-2 0v1h2zm-7.5 2A.5.5 0 0 0 5 8.5v9a.5.5 0 0 0 .5.5h13a.5.5 0 0 0 .5-.5v-9a.5.5 0 0 0-.5-.5h-13z"/>
  </symbol>
  <symbol id="icon-linkedin" viewBox="0 0 24 24">
    <path fill="currentColor" d="M19 0h-14c-2.76 0-5 2.24-5 5v14c0 2.76 2.24 5 5 5h14c2.76 0 5-2.24 5-5v-14c0-2.76-2.24-5-5-5zm-11 19h-3v-9h3v9zm-1.5-10.3c-.97 0-1.75-.79-1.75-1.75s.78-1.75 1.75-1.75 1.75.79 1.75 1.75-.78 1.75-1.75 1.75zm15.5 10.3h-3v-4.5c0-1.08-.02-2.47-1.5-2.47-1.5 0-1.73 1.17-1.73 2.39v4.58h-3v-9h2.89v1.23h.04c.4-.75 1.37-1.54 2.82-1.54 3.01 0 3.57 1.98 3.57 4.56v4.75z"/>
  </symbol>
</svg>
